<?xml version="1.0" encoding="UTF-8"?>
<svg width="228px" height="227px" viewBox="0 0 228 227" version="1.1" xmlns="http://www.w3.org/2000/svg" xmlns:xlink="http://www.w3.org/1999/xlink">
    <title>B2C6DB21-539B-4271-8B04-464E4C7A8670</title>
    <defs>
        <linearGradient x1="50%" y1="0%" x2="50%" y2="100%" id="linearGradient-1">
            <stop stop-color="#383AB5" offset="0%"></stop>
            <stop stop-color="#2C1D6A" offset="100%"></stop>
        </linearGradient>
    </defs>
    <g id="Web-/-Under-Construction" stroke="none" stroke-width="1" fill="none" fillRule="evenodd">
        <g id="slamcoin-wallet-" transform="translate(-1236.000000, -14447.000000)">
            <g id="Group-16-Copy-2" transform="translate(1349.810000, 14560.700000) rotate(12.000000) translate(-1349.810000, -14560.700000) translate(1254.330000, 14465.220000)">
                <circle id="Oval-Copy-2" fill="url(#linearGradient-1)" cx="95.48" cy="95.48" r="95.48"></circle>
                <g id="Group-15" transform="translate(56.537996, 18.183753)" fill="#FFFFFF">
                    <path d="M56.6371251,69.4714432 C72.2129033,79.5012445 80.7907692,87.8656363 80.7907692,104.33857 C80.7907692,123.249231 64.80616,136.401675 39.2068166,136.401675 C12.6858968,136.401675 3.68109449e-12,120.046337 3.68109449e-12,108.867594 C3.68109449e-12,98.790913 30.4036765,93.2631203 29.6679324,99.7134036 C25.5538334,112.299322 30.3642345,123.555933 41.3359235,123.536863 C49.3517416,123.523356 53.428674,117.762755 53.5030069,109.374526 C53.6167818,96.4747543 44.6399454,93.1582376 25.7540772,80.6922983 C8.23502433,69.1281909 3.63797881e-12,60.1233792 3.63797881e-12,45.3309518 C3.63797881e-12,25.2943917 17.5205699,13.3385634 41.277519,13.3385634 C61.7023818,13.3385634 79.9761412,23.704466 80.1695585,38.0535257 C80.3076053,48.3328206 50.0677647,55.0492834 51.6788167,47.3269006 C54.5656641,37.2120808 53.2382908,24.8963143 40.859586,25.0639677 C32.758816,25.1744123 27.544135,31.2536335 27.6222604,39.2159752 C27.7587902,53.202713 40.4060036,59.0221113 56.6371251,69.4714432 Z" id="logo" fillRule="nonzero"></path>
                    <rect id="Rectangle" x="20.9727035" y="0.53466646" width="11.8809955" height="26.0325812" rx="2.19417136"></rect>
                    <rect id="Rectangle-Copy-27" x="46.5356516" y="-7.27595761e-12" width="11.8809955" height="26.0325812" rx="2.19417136"></rect>
                    <rect id="Rectangle-Copy-28" x="21.9069826" y="128.485834" width="11.8809955" height="19.585641" rx="2.35932404"></rect>
                    <rect id="Rectangle-Copy-33" x="47.4699307" y="125.502962" width="11.8809955" height="22.0338462" rx="2.35932404"></rect>
                </g>
            </g>
        </g>
    </g>
</svg>