<svg width="48" height="48" viewBox="0 0 48 48" fill="none" xmlns="http://www.w3.org/2000/svg">
<path d="M43.6191 7.87976C40.5391 15.5598 32.8191 25.9998 26.3591 31.1798L22.4191 34.3398C21.9191 34.6998 21.4191 35.0198 20.8591 35.2398C20.8591 34.8798 20.8391 34.4798 20.7791 34.0998C20.5591 32.4198 19.7991 30.8598 18.4591 29.5198C17.0991 28.1598 15.4391 27.3598 13.7391 27.1398C13.3391 27.1198 12.9391 27.0798 12.5391 27.1198C12.7591 26.4998 13.0991 25.9198 13.5191 25.4398L16.6391 21.4998C21.7991 15.0398 32.2791 7.27975 39.9391 4.21975C41.1191 3.77975 42.2591 4.09975 42.9791 4.83975C43.7391 5.57975 44.0991 6.71976 43.6191 7.87976Z" stroke="#1B1B1B" stroke-width="3" stroke-linecap="round" stroke-linejoin="round"/>
<path d="M20.8586 35.2396C20.8586 37.4396 20.0186 39.5396 18.4386 41.1396C17.2186 42.3596 15.5586 43.1996 13.5786 43.4596L8.65859 43.9996C5.97859 44.2996 3.67859 42.0196 3.99859 39.2996L4.53859 34.3796C5.01859 29.9996 8.67859 27.1996 12.5586 27.1196C12.9586 27.0996 13.3786 27.1196 13.7586 27.1396C15.4586 27.3596 17.1186 28.1396 18.4786 29.5196C19.8186 30.8596 20.5786 32.4196 20.7986 34.0996C20.8186 34.4796 20.8586 34.8596 20.8586 35.2396Z" stroke="#E941E9" stroke-width="3" stroke-linecap="round" stroke-linejoin="round"/>
<path d="M28.4756 28.9405C28.4756 23.7205 24.2356 19.4805 19.0156 19.4805" stroke="#1B1B1B" stroke-width="3" stroke-linecap="round" stroke-linejoin="round"/>
</svg>
