<svg width="10" height="13" viewBox="0 0 10 13" fill="none" xmlns="http://www.w3.org/2000/svg">
<path d="M3 2.125V8.875C3 9.17337 3.10536 9.45952 3.29289 9.67049C3.48043 9.88147 3.73478 10 4 10H8C8.26522 10 8.51957 9.88147 8.70711 9.67049C8.89464 9.45952 9 9.17337 9 8.875V3.94863C8.99998 3.79875 8.97335 3.65039 8.92166 3.51226C8.86997 3.37413 8.79427 3.24901 8.699 3.14425L7.0415 1.32062C6.85468 1.11512 6.60379 1.00004 6.3425 1H4C3.73478 1 3.48043 1.11853 3.29289 1.3295C3.10536 1.54048 3 1.82663 3 2.125V2.125Z" stroke="#A9ADBD" stroke-linecap="round" stroke-linejoin="round"/>
<path d="M7 9.86667V10.9333C7 11.2162 6.89464 11.4875 6.70711 11.6876C6.51957 11.8876 6.26522 12 6 12H2C1.73478 12 1.48043 11.8876 1.29289 11.6876C1.10536 11.4875 1 11.2162 1 10.9333V5.06667C1 4.78377 1.10536 4.51246 1.29289 4.31242C1.48043 4.11238 1.73478 4 2 4H3" stroke="#A9ADBD" stroke-linecap="round" stroke-linejoin="round"/>
</svg>
