<svg width="172" height="46" viewBox="0 0 172 46" fill="none" xmlns="http://www.w3.org/2000/svg">
<path d="M71.2811 21.5904C70.6683 20.8171 69.9258 20.2026 69.0471 19.7422C68.1668 19.2834 67.1713 19.0499 66.0576 19.0499C65.0508 19.0499 64.1154 19.2072 63.2464 19.5185C62.379 19.8281 61.6673 20.3582 61.1113 21.1089H61.0464V14.4619H56.2266V35.0513H60.6589V32.9956H60.7238C60.9167 33.2728 61.168 33.5581 61.4793 33.8451C61.7889 34.1353 62.1537 34.3979 62.5704 34.633C62.9886 34.8697 63.4442 35.061 63.937 35.2118C64.4299 35.3625 64.9552 35.4371 65.5128 35.4371C66.6704 35.4371 67.7193 35.2393 68.6612 34.8421C69.6032 34.4466 70.4121 33.8889 71.0866 33.1707C71.761 32.4541 72.2814 31.6013 72.6445 30.6173C73.0109 29.6316 73.1925 28.5486 73.1925 27.3716C73.1925 26.2789 73.0255 25.2348 72.6932 24.2394C72.3608 23.2456 71.8907 22.3604 71.2811 21.5904ZM67.3594 30.105C66.685 30.8313 65.7382 31.1977 64.5158 31.1977C63.295 31.1977 62.3466 30.8313 61.6722 30.105C60.9978 29.3754 60.6589 28.4238 60.6589 27.2451C60.6589 26.0665 60.9978 25.1116 61.6722 24.3853C62.3466 23.6558 63.295 23.2926 64.5158 23.2926C65.7382 23.2926 66.685 23.6558 67.3594 24.3853C68.0338 25.1116 68.3727 26.0665 68.3727 27.2451C68.3727 28.4238 68.0338 29.377 67.3594 30.105Z" fill="white"/>
<path d="M84.7654 27.2115C84.7654 27.7254 84.7345 28.2183 84.6697 28.6901C84.6048 29.1602 84.4719 29.585 84.2693 29.9578C84.065 30.334 83.7699 30.6323 83.3857 30.8576C82.9999 31.083 82.4957 31.1964 81.8747 31.1964C81.2522 31.1964 80.7756 31.0667 80.4432 30.8106C80.1109 30.5544 79.8644 30.2221 79.7039 29.8136C79.5451 29.4066 79.4478 28.9608 79.4154 28.4809C79.3846 27.9978 79.3667 27.5325 79.3667 27.0834V19.4346H74.5469V28.0464C74.5469 29.097 74.6166 30.0713 74.756 30.9711C74.8938 31.8692 75.1743 32.6523 75.5909 33.317C76.0092 33.9817 76.5961 34.4988 77.3581 34.875C78.1168 35.2495 79.109 35.4375 80.3281 35.4375C80.9069 35.4375 81.4419 35.3629 81.9347 35.2122C82.4276 35.0614 82.8669 34.8701 83.2528 34.6334C83.6386 34.4 83.9645 34.1292 84.232 33.8309C84.4995 33.5294 84.7183 33.2311 84.8902 32.9311H84.955V35.0517H89.582V19.4362H84.7621V27.2115H84.7654Z" fill="white"/>
<path d="M107.008 21.5904C106.398 20.8171 105.652 20.2026 104.774 19.7422C103.897 19.2834 102.9 19.0499 101.786 19.0499C100.779 19.0499 99.8403 19.2072 98.9746 19.5185C98.1072 19.8281 97.3955 20.3582 96.8378 21.1089H96.773V14.4619H91.9531V35.0513H96.3888V32.9956H96.452C96.6465 33.2728 96.8962 33.5581 97.2075 33.8451C97.5171 34.1353 97.8819 34.3979 98.3002 34.633C98.7184 34.8697 99.174 35.061 99.6668 35.2118C100.158 35.3625 100.682 35.4371 101.239 35.4371C102.397 35.4371 103.446 35.2393 104.389 34.8421C105.331 34.4466 106.14 33.8889 106.815 33.1707C107.489 32.4541 108.008 31.6013 108.373 30.6173C108.736 29.6316 108.917 28.5486 108.917 27.3716C108.917 26.2789 108.752 25.2348 108.42 24.2394C108.089 23.2456 107.617 22.3604 107.008 21.5904ZM103.088 30.105C102.413 30.8313 101.465 31.1977 100.242 31.1977C99.0216 31.1977 98.0732 30.8313 97.3988 30.105C96.7243 29.3754 96.3871 28.4238 96.3871 27.2451C96.3871 26.0665 96.7227 25.1116 97.3988 24.3853C98.0732 23.6558 99.0216 23.2926 100.242 23.2926C101.465 23.2926 102.413 23.6558 103.088 24.3853C103.762 25.1116 104.099 26.0665 104.099 27.2451C104.099 28.4238 103.762 29.377 103.088 30.105Z" fill="white"/>
<path d="M125.773 21.5904C125.164 20.8171 124.42 20.2026 123.539 19.7422C122.662 19.2834 121.665 19.0499 120.551 19.0499C119.545 19.0499 118.606 19.2072 117.74 19.5185C116.873 19.8281 116.161 20.3582 115.603 21.1089H115.54V14.4619H110.719V35.0513H115.154V32.9956H115.219C115.412 33.2728 115.663 33.5581 115.973 33.8451C116.284 34.1353 116.648 34.3979 117.066 34.633C117.484 34.8697 117.94 35.061 118.432 35.2118C118.925 35.3625 119.451 35.4371 120.008 35.4371C121.164 35.4371 122.215 35.2393 123.157 34.8421C124.099 34.4466 124.908 33.8889 125.582 33.1707C126.256 32.4541 126.777 31.6013 127.14 30.6173C127.503 29.6316 127.688 28.5486 127.688 27.3716C127.688 26.2789 127.521 25.2348 127.189 24.2394C126.855 23.2456 126.384 22.3604 125.773 21.5904ZM121.853 30.105C121.179 30.8313 120.23 31.1977 119.01 31.1977C117.787 31.1977 116.84 30.8313 116.166 30.105C115.492 29.3754 115.153 28.4238 115.153 27.2451C115.153 26.0665 115.492 25.1116 116.166 24.3853C116.84 23.6558 117.787 23.2926 119.01 23.2926C120.23 23.2926 121.179 23.6558 121.853 24.3853C122.528 25.1116 122.865 26.0665 122.865 27.2451C122.865 28.4238 122.529 29.377 121.853 30.105Z" fill="white"/>
<path d="M133.921 14.4619H129.102V35.0513H133.921V14.4619Z" fill="white"/>
<path d="M145.896 31.2439C145.348 31.5973 144.68 31.7724 143.886 31.7724C142.944 31.7724 142.151 31.5 141.509 30.9537C140.867 30.4089 140.45 29.6745 140.256 28.7537H151.439V27.2427C151.439 25.9993 151.267 24.8758 150.925 23.869C150.583 22.8622 150.093 21.9997 149.463 21.2799C148.83 20.5633 148.059 20.0121 147.151 19.6247C146.24 19.2404 145.226 19.0459 144.113 19.0459C142.913 19.0459 141.783 19.2404 140.723 19.6247C139.664 20.0105 138.742 20.5633 137.96 21.2799C137.177 21.9981 136.563 22.8606 136.112 23.869C135.663 24.8758 135.438 25.9993 135.438 27.2427C135.438 28.483 135.663 29.6097 136.112 30.6165C136.563 31.6232 137.177 32.4841 137.96 33.2023C138.742 33.9189 139.662 34.4701 140.723 34.8575C141.785 35.2434 142.915 35.4363 144.113 35.4363C145.377 35.4363 146.596 35.1672 147.775 34.6322C148.954 34.0972 149.929 33.3369 150.7 32.3512L147.326 29.8772C146.917 30.4349 146.441 30.8888 145.896 31.2439ZM140.528 24.3667C140.689 24.0133 140.914 23.702 141.203 23.4345C141.493 23.167 141.84 22.9481 142.247 22.7763C142.654 22.6045 143.124 22.5201 143.66 22.5201C144.537 22.5201 145.256 22.8087 145.812 23.3875C146.369 23.9663 146.637 24.6618 146.616 25.4772H140.252C140.277 25.0898 140.368 24.7201 140.528 24.3667Z" fill="white"/>
<path d="M164.542 24.3964L169.227 17.5419L171.214 14.6367H165.709L164.01 17.5419L161.484 21.8624L158.854 17.5419L157.086 14.6367H151.376L153.388 17.5419L158.193 24.4839L150.969 35.2617H156.358L161.25 26.9611L166.291 35.2617H172.001L164.542 24.3964Z" fill="white"/>
<path d="M23.6537 4.47754C12.4463 4.47754 3.35938 13.5628 3.35938 24.7718C3.35938 35.9809 12.4446 45.0661 23.6537 45.0661C34.8627 45.0661 43.948 35.9809 43.948 24.7718C43.948 13.5628 34.8627 4.47754 23.6537 4.47754ZM23.6537 36.2159C17.3342 36.2159 12.2096 31.0929 12.2096 24.7718C12.2096 18.4507 17.3326 13.3277 23.6537 13.3277C29.9731 13.3277 35.0978 18.4507 35.0978 24.7718C35.0978 31.0929 29.9748 36.2159 23.6537 36.2159Z" fill="white"/>
<path d="M4.98522 9.97043C7.73848 9.97043 9.97043 7.73848 9.97043 4.98522C9.97043 2.23196 7.73848 0 4.98522 0C2.23196 0 0 2.23196 0 4.98522C0 7.73848 2.23196 9.97043 4.98522 9.97043Z" fill="white"/>
</svg>
