<svg width="25" height="25" viewBox="0 0 25 25" fill="none" xmlns="http://www.w3.org/2000/svg">
<path d="M22.917 6.25004V8.77087C22.917 10.4167 21.8753 11.4584 20.2295 11.4584H16.667V4.17712C16.667 3.02087 17.6149 2.08337 18.7712 2.08337C19.9066 2.09379 20.9483 2.55212 21.6983 3.30212C22.4483 4.06254 22.917 5.10421 22.917 6.25004Z" stroke="#1B1B1B" stroke-width="2" stroke-miterlimit="10" stroke-linecap="round" stroke-linejoin="round"/>
<path d="M2.08301 7.29171V21.875C2.08301 22.7396 3.06215 23.2292 3.74965 22.7084L5.53092 21.375C5.94759 21.0625 6.53093 21.1042 6.90593 21.4792L8.63507 23.2188C9.04132 23.625 9.70803 23.625 10.1143 23.2188L11.8643 21.4688C12.2289 21.1042 12.8122 21.0625 13.2184 21.375L14.9997 22.7084C15.6872 23.2188 16.6663 22.7292 16.6663 21.875V4.16671C16.6663 3.02087 17.6038 2.08337 18.7497 2.08337H7.29134H6.24967C3.12467 2.08337 2.08301 3.94796 2.08301 6.25004V7.29171Z" stroke="#1B1B1B" stroke-width="2" stroke-miterlimit="10" stroke-linecap="round" stroke-linejoin="round"/>
<path d="M6.25 9.375H12.5" stroke="#1B1B1B" stroke-width="2" stroke-linecap="round" stroke-linejoin="round"/>
<path d="M7.03125 13.5416H11.7187" stroke="#1B1B1B" stroke-width="2" stroke-linecap="round" stroke-linejoin="round"/>
</svg>
