<svg width="172" height="46" viewBox="0 0 172 46" fill="none" xmlns="http://www.w3.org/2000/svg">
<path d="M71.2811 21.5894C70.6683 20.8161 69.9258 20.2016 69.0471 19.7412C68.1668 19.2824 67.1713 19.049 66.0576 19.049C65.0508 19.049 64.1154 19.2062 63.2464 19.5175C62.379 19.8271 61.6673 20.3573 61.1113 21.1079H61.0464V14.4609H56.2266V35.0503H60.6589V32.9946H60.7238C60.9167 33.2718 61.168 33.5572 61.4793 33.8441C61.7889 34.1343 62.1537 34.3969 62.5704 34.632C62.9886 34.8687 63.4442 35.06 63.937 35.2108C64.4299 35.3616 64.9552 35.4361 65.5128 35.4361C66.6704 35.4361 67.7193 35.2384 68.6612 34.8412C69.6032 34.4456 70.4121 33.8879 71.0866 33.1697C71.761 32.4531 72.2814 31.6004 72.6445 30.6163C73.0109 29.6306 73.1925 28.5476 73.1925 27.3706C73.1925 26.2779 73.0255 25.2339 72.6932 24.2384C72.3608 23.2446 71.8907 22.3595 71.2811 21.5894ZM67.3594 30.104C66.685 30.8303 65.7382 31.1967 64.5158 31.1967C63.295 31.1967 62.3466 30.8303 61.6722 30.104C60.9978 29.3744 60.6589 28.4228 60.6589 27.2442C60.6589 26.0656 60.9978 25.1107 61.6722 24.3844C62.3466 23.6548 63.295 23.2917 64.5158 23.2917C65.7382 23.2917 66.685 23.6548 67.3594 24.3844C68.0338 25.1107 68.3727 26.0656 68.3727 27.2442C68.3727 28.4228 68.0338 29.3761 67.3594 30.104Z" fill="#1B1B1B"/>
<path d="M84.7654 27.2105C84.7654 27.7245 84.7345 28.2173 84.6697 28.6891C84.6048 29.1592 84.4719 29.584 84.2693 29.9569C84.065 30.333 83.7699 30.6313 83.3857 30.8566C82.9999 31.082 82.4957 31.1955 81.8747 31.1955C81.2522 31.1955 80.7756 31.0658 80.4432 30.8096C80.1109 30.5535 79.8644 30.2211 79.7039 29.8126C79.5451 29.4057 79.4478 28.9598 79.4154 28.4799C79.3846 27.9968 79.3667 27.5315 79.3667 27.0825V19.4336H74.5469V28.0455C74.5469 29.096 74.6166 30.0703 74.756 30.9701C74.8938 31.8683 75.1743 32.6513 75.5909 33.316C76.0092 33.9807 76.5961 34.4979 77.3581 34.874C78.1168 35.2485 79.109 35.4365 80.3281 35.4365C80.9069 35.4365 81.4419 35.362 81.9347 35.2112C82.4276 35.0604 82.8669 34.8691 83.2528 34.6324C83.6386 34.399 83.9645 34.1282 84.232 33.8299C84.4995 33.5284 84.7183 33.2301 84.8902 32.9302H84.955V35.0507H89.582V19.4352H84.7621V27.2105H84.7654Z" fill="#1B1B1B"/>
<path d="M107.008 21.5894C106.398 20.8161 105.652 20.2016 104.774 19.7412C103.897 19.2824 102.9 19.049 101.786 19.049C100.779 19.049 99.8403 19.2062 98.9746 19.5175C98.1072 19.8271 97.3955 20.3573 96.8378 21.1079H96.773V14.4609H91.9531V35.0503H96.3888V32.9946H96.452C96.6465 33.2718 96.8962 33.5572 97.2075 33.8441C97.5171 34.1343 97.8819 34.3969 98.3002 34.632C98.7184 34.8687 99.174 35.06 99.6668 35.2108C100.158 35.3616 100.682 35.4361 101.239 35.4361C102.397 35.4361 103.446 35.2384 104.389 34.8412C105.331 34.4456 106.14 33.8879 106.815 33.1697C107.489 32.4531 108.008 31.6004 108.373 30.6163C108.736 29.6306 108.917 28.5476 108.917 27.3706C108.917 26.2779 108.752 25.2339 108.42 24.2384C108.089 23.2446 107.617 22.3595 107.008 21.5894ZM103.088 30.104C102.413 30.8303 101.465 31.1967 100.242 31.1967C99.0216 31.1967 98.0732 30.8303 97.3988 30.104C96.7243 29.3744 96.3871 28.4228 96.3871 27.2442C96.3871 26.0656 96.7227 25.1107 97.3988 24.3844C98.0732 23.6548 99.0216 23.2917 100.242 23.2917C101.465 23.2917 102.413 23.6548 103.088 24.3844C103.762 25.1107 104.099 26.0656 104.099 27.2442C104.099 28.4228 103.762 29.3761 103.088 30.104Z" fill="#1B1B1B"/>
<path d="M125.773 21.5894C125.164 20.8161 124.42 20.2016 123.539 19.7412C122.662 19.2824 121.665 19.049 120.551 19.049C119.545 19.049 118.606 19.2062 117.74 19.5175C116.873 19.8271 116.161 20.3573 115.603 21.1079H115.54V14.4609H110.719V35.0503H115.154V32.9946H115.219C115.412 33.2718 115.663 33.5572 115.973 33.8441C116.284 34.1343 116.648 34.3969 117.066 34.632C117.484 34.8687 117.94 35.06 118.432 35.2108C118.925 35.3616 119.451 35.4361 120.008 35.4361C121.164 35.4361 122.215 35.2384 123.157 34.8412C124.099 34.4456 124.908 33.8879 125.582 33.1697C126.256 32.4531 126.777 31.6004 127.14 30.6163C127.503 29.6306 127.688 28.5476 127.688 27.3706C127.688 26.2779 127.521 25.2339 127.189 24.2384C126.855 23.2446 126.384 22.3595 125.773 21.5894ZM121.853 30.104C121.179 30.8303 120.23 31.1967 119.01 31.1967C117.787 31.1967 116.84 30.8303 116.166 30.104C115.492 29.3744 115.153 28.4228 115.153 27.2442C115.153 26.0656 115.492 25.1107 116.166 24.3844C116.84 23.6548 117.787 23.2917 119.01 23.2917C120.23 23.2917 121.179 23.6548 121.853 24.3844C122.528 25.1107 122.865 26.0656 122.865 27.2442C122.865 28.4228 122.529 29.3761 121.853 30.104Z" fill="#1B1B1B"/>
<path d="M133.921 14.4609H129.102V35.0503H133.921V14.4609Z" fill="#1B1B1B"/>
<path d="M145.896 31.2449C145.348 31.5983 144.68 31.7734 143.886 31.7734C142.944 31.7734 142.151 31.501 141.509 30.9547C140.867 30.4099 140.45 29.6755 140.256 28.7547H151.439V27.2437C151.439 26.0002 151.267 24.8767 150.925 23.87C150.583 22.8632 150.093 22.0007 149.463 21.2809C148.83 20.5643 148.059 20.0131 147.151 19.6256C146.24 19.2414 145.226 19.0469 144.113 19.0469C142.913 19.0469 141.783 19.2414 140.723 19.6256C139.664 20.0115 138.742 20.5643 137.96 21.2809C137.177 21.9991 136.563 22.8616 136.112 23.87C135.663 24.8767 135.438 26.0002 135.438 27.2437C135.438 28.4839 135.663 29.6107 136.112 30.6174C136.563 31.6242 137.177 32.4851 137.96 33.2033C138.742 33.9198 139.662 34.4711 140.723 34.8585C141.785 35.2444 142.915 35.4373 144.113 35.4373C145.377 35.4373 146.596 35.1682 147.775 34.6332C148.954 34.0982 149.929 33.3378 150.7 32.3521L147.326 29.8782C146.917 30.4359 146.441 30.8898 145.896 31.2449ZM140.528 24.3677C140.689 24.0143 140.914 23.703 141.203 23.4355C141.493 23.168 141.84 22.9491 142.247 22.7773C142.654 22.6054 143.124 22.5211 143.66 22.5211C144.537 22.5211 145.256 22.8097 145.812 23.3885C146.369 23.9672 146.637 24.6627 146.616 25.4782H140.252C140.277 25.0907 140.368 24.7211 140.528 24.3677Z" fill="#1B1B1B"/>
<path d="M164.542 24.3964L169.227 17.5419L171.214 14.6367H165.709L164.01 17.5419L161.484 21.8624L158.854 17.5419L157.086 14.6367H151.376L153.388 17.5419L158.193 24.4839L150.969 35.2617H156.358L161.25 26.9611L166.291 35.2617H172.001L164.542 24.3964Z" fill="#1B1B1B"/>
<path d="M23.6498 4.47656C12.4423 4.47656 3.35547 13.5618 3.35547 24.7709C3.35547 35.9799 12.4407 45.0651 23.6498 45.0651C34.8588 45.0651 43.9441 35.9799 43.9441 24.7709C43.9441 13.5618 34.8588 4.47656 23.6498 4.47656ZM23.6498 36.215C17.3303 36.215 12.2056 31.0919 12.2056 24.7709C12.2056 18.4498 17.3287 13.3267 23.6498 13.3267C29.9692 13.3267 35.0939 18.4498 35.0939 24.7709C35.0939 31.0919 29.9709 36.215 23.6498 36.215Z" fill="url(#paint0_linear_5183_2925)"/>
<path d="M4.98522 9.97043C7.73848 9.97043 9.97043 7.73848 9.97043 4.98522C9.97043 2.23196 7.73848 0 4.98522 0C2.23196 0 0 2.23196 0 4.98522C0 7.73848 2.23196 9.97043 4.98522 9.97043Z" fill="url(#paint1_linear_5183_2925)"/>
<defs>
<linearGradient id="paint0_linear_5183_2925" x1="-3.33982" y1="-5.07485" x2="53.4358" y2="55.8768" gradientUnits="userSpaceOnUse">
<stop stop-color="#E961FF"/>
<stop offset="1" stop-color="#4176FF"/>
</linearGradient>
<linearGradient id="paint1_linear_5183_2925" x1="-3.33982" y1="-5.07485" x2="53.4358" y2="55.8768" gradientUnits="userSpaceOnUse">
<stop stop-color="#E961FF"/>
<stop offset="1" stop-color="#4176FF"/>
</linearGradient>
</defs>
</svg>
