<svg width="25" height="25" viewBox="0 0 25 25" fill="none" xmlns="http://www.w3.org/2000/svg">
<path d="M4.58829 16.1733L9.30704 20.892C11.2445 22.8295 14.3904 22.8295 16.3383 20.892L20.9112 16.3191C22.8487 14.3816 22.8487 11.2358 20.9112 9.28788L16.182 4.57955C15.1925 3.58997 13.8279 3.05872 12.432 3.13163L7.2237 3.38163C5.14037 3.47538 3.48412 5.13163 3.37995 7.20455L3.12995 12.4129C3.06745 13.8191 3.5987 15.1837 4.58829 16.1733Z" stroke="#1B1B1B" stroke-width="2" stroke-linecap="round" stroke-linejoin="round"/>
<path d="M10.1403 12.736C11.5785 12.736 12.7445 11.5701 12.7445 10.1319C12.7445 8.69364 11.5785 7.52771 10.1403 7.52771C8.70206 7.52771 7.53613 8.69364 7.53613 10.1319C7.53613 11.5701 8.70206 12.736 10.1403 12.736Z" stroke="#1B1B1B" stroke-width="2" stroke-linecap="round"/>
<path d="M13.7861 17.9444L17.9528 13.7777" stroke="#1B1B1B" stroke-width="2" stroke-miterlimit="10" stroke-linecap="round" stroke-linejoin="round"/>
</svg>
