<svg width="100" height="100" viewBox="0 0 100 100" fill="none" xmlns="http://www.w3.org/2000/svg">
<path d="M50 100C77.6142 100 100 77.6142 100 50C100 22.3858 77.6142 0 50 0C22.3858 0 0 22.3858 0 50C0 77.6142 22.3858 100 50 100Z" fill="url(#paint0_linear_7742_5212)"/>
<path d="M59.5362 47.7317C66.4225 54.5651 69.9056 59.7835 68.1121 68.2214C66.0531 77.9079 56.4334 82.9046 43.3207 80.1174C29.736 77.2299 25.0187 67.471 26.2358 61.745C27.3329 56.5835 43.5083 57.0622 42.4292 60.2861C38.9515 66.285 40.1899 72.5747 45.812 73.7595C49.9194 74.6253 52.6349 72.1185 53.5863 67.8299C55.049 61.2347 50.812 58.5585 42.4954 50.1169C34.7807 42.286 31.5429 36.7769 33.1535 29.1998C35.335 18.9366 45.6112 14.7201 57.7802 17.3067C68.2423 19.5305 76.474 26.8298 75.0108 34.2008C73.9623 39.4811 57.7414 39.6291 59.4074 35.8489C61.9874 30.9821 62.6484 24.5291 56.2895 23.2672C52.128 22.4418 48.795 24.988 47.9681 29.075C46.5152 36.2543 52.3599 40.6121 59.5362 47.7317Z" fill="white"/>
<path d="M53.7355 9.58596L49.8972 8.77011C49.2765 8.63819 48.6665 9.03436 48.5346 9.65498L46.1779 20.7421C46.046 21.3627 46.4422 21.9728 47.0628 22.1047L50.9011 22.9205C51.5217 23.0525 52.1318 22.6563 52.2637 22.0357L54.6203 10.9486C54.7522 10.3279 54.3561 9.71788 53.7355 9.58596Z" fill="white"/>
<path d="M66.8878 12.0938L63.0495 11.2779C62.4289 11.146 61.8188 11.5422 61.6869 12.1628L59.3303 23.2499C59.1984 23.8705 59.5945 24.4806 60.2152 24.6125L64.0535 25.4283C64.6741 25.5603 65.2841 25.1641 65.416 24.5435L67.7727 13.4564C67.9046 12.8357 67.5084 12.2257 66.8878 12.0938Z" fill="white"/>
<path d="M40.4673 73.9664L36.7982 73.1865C36.1308 73.0447 35.4749 73.4707 35.333 74.138L33.5277 82.6315C33.3858 83.2988 33.8118 83.9548 34.4791 84.0966L38.1483 84.8765C38.8156 85.0184 39.4716 84.5924 39.6134 83.925L41.4188 75.4316C41.5606 74.7642 41.1346 74.1083 40.4673 73.9664Z" fill="white"/>
<path d="M53.6157 76.4586L49.9466 75.6787C49.2793 75.5369 48.6233 75.9629 48.4814 76.6302L46.6761 85.1237C46.5343 85.791 46.9602 86.447 47.6276 86.5888L51.2967 87.3687C51.9641 87.5105 52.62 87.0846 52.7619 86.4172L54.5672 77.9238C54.7091 77.2564 54.2831 76.6005 53.6157 76.4586Z" fill="white"/>
<defs>
<linearGradient id="paint0_linear_7742_5212" x1="50" y1="0" x2="50" y2="100" gradientUnits="userSpaceOnUse">
<stop stop-color="#383AB5"/>
<stop offset="1" stop-color="#2C1D6A"/>
</linearGradient>
</defs>
</svg>
